<?xml version="1.0" encoding="utf-8"?>
<!-- Generator: Adobe Illustrator 16.0.4, SVG Export Plug-In . SVG Version: 6.00 Build 0)  -->
<!DOCTYPE svg PUBLIC "-//W3C//DTD SVG 1.1//EN" "http://www.w3.org/Graphics/SVG/1.1/DTD/svg11.dtd">
<svg version="1.1" id="Layer_1" xmlns="http://www.w3.org/2000/svg" xmlns:xlink="http://www.w3.org/1999/xlink" x="0px" y="0px"
	 viewBox="0 0 16 10" enable-background="new 0 0 16 10" xml:space="preserve">
<g>
	<path fill="#707071" d="M8,1c2.217,0,4.179,1.622,6.582,3.998C12.037,7.509,10.345,9,8,9C5.658,9,4.066,7.5,1.459,5.01
		c0.013-0.012,0.025-0.024,0.039-0.036C4.067,2.581,5.764,1,8,1 M8,8c1.654,0,3-1.346,3-3S9.654,2,8,2S5,3.346,5,5S6.346,8,8,8 M8,0
		C5.11,0,3.11,2.13,0,5c3.17,3.01,5.01,5,8,5c2.97,0,4.97-1.99,8-5C13.03,2.01,10.77,0,8,0L8,0z M8,7C6.893,7,6,6.106,6,5
		c0-1.107,0.893-2,2-2c1.106,0,2,0.893,2,2C10,6.106,9.106,7,8,7L8,7z"/>
</g>
</svg>
